<svg xmlns="http://www.w3.org/2000/svg" viewBox="0 0 600 320" role="img" aria-labelledby="t d"><title id="t">AI capability</title><desc id="d">Organisational capability turns access into value.</desc><defs><linearGradient id="g" x1="0" y1="0" x2="1" y2="1"><stop stop-color="#06141d"/><stop offset="1" stop-color="#123b4b"/></linearGradient><radialGradient id="r"><stop stop-color="#16b8df" stop-opacity=".35"/><stop offset="1" stop-color="#16b8df" stop-opacity="0"/></radialGradient></defs><rect width="600" height="320" fill="url(#g)"/><circle cx="241" cy="153" r="150" fill="url(#r)"/><g fill="none" stroke="#53d8ff" stroke-width="5" stroke-linecap="round" stroke-linejoin="round"><circle cx="390" cy="145" r="72"/><path d="M360 110c-35 0-43 45-18 57-18 28 12 58 38 42 18 23 57 8 52-20 32-8 31-52 1-61 10-33-31-48-46-24-8-10-16-14-27-14z"/></g><g fill="#ef8d5a"><circle cx="389" cy="199" r="7"/><circle cx="354" cy="224" r="4"/></g><path d="M35 270h210" stroke="#ef8d5a" stroke-width="3"/><text x="35" y="55" fill="#ef8d5a" font-family="Arial" font-weight="700" font-size="16" letter-spacing="2">THE GABOR GULYAS PLATFORM</text><text x="35" y="292" fill="#d7e8ef" font-family="Arial" font-size="18">AI capability</text></svg>