<svg xmlns="http://www.w3.org/2000/svg" viewBox="0 0 600 320" role="img" aria-labelledby="t d"><title id="t">Human judgement in AI</title><desc id="d">Technology supports; people remain responsible.</desc><defs><linearGradient id="g" x1="0" y1="0" x2="1" y2="1"><stop stop-color="#06141d"/><stop offset="1" stop-color="#123b4b"/></linearGradient><radialGradient id="r"><stop stop-color="#16b8df" stop-opacity=".35"/><stop offset="1" stop-color="#16b8df" stop-opacity="0"/></radialGradient></defs><rect width="600" height="320" fill="url(#g)"/><circle cx="160" cy="170" r="150" fill="url(#r)"/><g fill="none" stroke="#53d8ff" stroke-width="5" stroke-linecap="round" stroke-linejoin="round"><path d="M305 205c25-80 40-120 60-110 14 7 1 40 8 43 10 5 15-70 38-62 18 6 0 60 12 62 11 2 14-50 35-42 18 7 1 58 12 60 12 2 18-37 34-25 18 14-8 91-46 104h-105c-35-10-54-15-58-30z"/></g><g fill="#ef8d5a"><circle cx="410" cy="200" r="7"/><circle cx="375" cy="225" r="4"/></g><path d="M35 270h210" stroke="#ef8d5a" stroke-width="3"/><text x="35" y="55" fill="#ef8d5a" font-family="Arial" font-weight="700" font-size="16" letter-spacing="2">THE GABOR GULYAS PLATFORM</text><text x="35" y="292" fill="#d7e8ef" font-family="Arial" font-size="18">Human judgement in AI</text></svg>